#!OML:ASF E:\inclinewalkrobotboard\Project 1\Capture day 1\Session 1\subject1.ASF
:FULLY-SPECIFIED
:DEGREES
287
root 11.8942 16.3256 0.354896 -6.85696 -37.8439 3.20377
lowerback 35.4148 7.08546 4.34324
upperback 19.4458 9.26223 14.9982
thorax 1.55385 3.67452 10.8406
lowerneck 5.82083 -2.67517 2.54078
upperneck -6.48339 -3.52098 -1.96931
head -3.19843 -1.74429 -0.923197
rclavicle -6.36111e-015 1.24042e-013
rhumerus 21.0303 37.8218 -103.319
rradius 130.403
rwrist -66.2817
rhand 72.2164 -74.3077
rfingers 7.12502
rthumb 72.6522 0.330261
lclavicle -6.36111e-015 1.24042e-013
lhumerus 22.5819 -32.5302 99.1122
lradius 64.3645
lwrist -28.1506
lhand 10.8854 -26.8869
lfingers 7.12502
lthumb 35.9656 -0.561963
rfemur -86.9968 -16.0953 26.117
rtibia 116.23
rfoot -16.3747 1.18408
rtoes -7.70642
lfemur -87.4108 -0.185848 -30.9219
ltibia 120.041
lfoot -12.1568 0.477935
ltoes -59.0366
288
root 11.8924 16.3231 0.354241 -6.83561 -37.8233 3.20434
lowerback 35.3833 7.07886 4.37182
upperback 19.4659 9.25475 14.9613
thorax 1.60189 3.67455 10.7931
lowerneck 5.82742 -2.65399 2.6072
upperneck -6.5995 -3.49111 -2.00191
head -3.24147 -1.73016 -0.946677
rclavicle 5.725e-014 -3.18055e-014
rhumerus 21.1455 37.8014 -103.251
rradius 130.415
rwrist -66.2234
rhand 72.4989 -74.1664
rfingers 7.12502
rthumb 72.5109 1.251
lclavicle 5.725e-014 -3.18055e-014
lhumerus 22.6555 -32.5719 99.0433
lradius 64.3655
lwrist -28.1846
lhand 10.961 -26.9277
lfingers 7.12502
lthumb 36.0372 -0.620312
rfemur -87.0539 -16.1087 26.1335
rtibia 116.251
rfoot -16.3663 1.19862
rtoes -7.62671
lfemur -87.4154 -0.183257 -30.9291
ltibia 120.05
lfoot -12.1796 0.46298
ltoes -58.9587
289
root 11.8926 16.3208 0.354599 -6.82317 -37.7477 3.13547
lowerback 35.4082 7.0198 4.4712
upperback 19.4579 9.21156 14.9495
thorax 1.61214 3.65938 10.7424
lowerneck 5.87635 -2.628 2.6481
upperneck -6.63658 -3.45763 -2.07345
head -3.2657 -1.71163 -0.978431
rclavicle -9.85972e-014 -2.22639e-014
rhumerus 21.1771 37.797 -103.25
rradius 130.393
rwrist -66.2023
rhand 72.5703 -74.273
rfingers 7.12502
rthumb 72.4746 1.3394
lclavicle -9.85972e-014 -2.22639e-014
lhumerus 22.6764 -32.5715 99.005
lradius 64.3537
lwrist -28.1835
lhand 11.0631 -26.9201
lfingers 7.12502
lthumb 36.1339 -0.636558
rfemur -87.0108 -16.211 26.1882
rtibia 116.25
rfoot -16.4068 1.19883
rtoes -8.88523
lfemur -87.4154 -0.253336 -30.872
ltibia 120.05
lfoot -12.104 0.413974
ltoes -58.7348
290
root 11.8919 16.3205 0.354638 -6.86549 -37.7152 3.13984
lowerback 35.4648 7.01608 4.3964
upperback 19.4352 9.1972 14.986
thorax 1.54762 3.6452 10.8188
lowerneck 5.98714 -2.62151 2.58089
upperneck -6.62821 -3.45007 -2.05042
head -3.28161 -1.70619 -0.958287
rclavicle 3.18055e-014 -6.36111e-015
rhumerus 21.0374 37.8623 -103.291
rradius 130.403
rwrist -66.2416
rhand 72.5085 -74.523
rfingers 7.12502
rthumb 72.506 0.920623
lclavicle 3.18055e-014 -6.36111e-015
lhumerus 22.625 -32.4631 99.0508
lradius 64.3448
lwrist -28.1916
lhand 11.2503 -26.8592
lfingers 7.12502
lthumb 36.3112 -0.619781
rfemur -86.9588 -16.2566 26.175
rtibia 116.256
rfoot -16.4517 1.17755
rtoes -10.0826
lfemur -87.3653 -0.27085 -30.8607
ltibia 120.033
lfoot -12.0592 0.295643
ltoes -58.4286
291
root 11.8894 16.3219 0.354088 -6.94758 -37.7643 3.21446
lowerback 35.5171 7.06839 4.27929
upperback 19.4509 9.23059 14.9862
thorax 1.52017 3.65317 10.8645
lowerneck 5.96757 -2.63068 2.52402
upperneck -6.59334 -3.46167 -1.97883
head -3.2628 -1.71324 -0.92446
rclavicle -5.08889e-014 4.77083e-014
rhumerus 20.9724 37.906 -103.333
rradius 130.42
rwrist -66.254
rhand 72.5763 -74.5218
rfingers 7.12502
rthumb 72.4716 1.10688
lclavicle -5.08889e-014 4.77083e-014
lhumerus 22.648 -32.4241 99.0062
lradius 64.3553
lwrist -28.2037
lhand 11.4036 -26.8459
lfingers 7.12502
lthumb 36.4564 -0.64284
rfemur -86.9054 -16.1903 26.1066
rtibia 116.263
rfoot -16.4226 1.19296
rtoes -9.18995
lfemur -87.2844 -0.174964 -30.9099
ltibia 120.027
lfoot -12.0945 0.273635
ltoes -58.6296
